<?xml version="1.0" encoding="iso-8859-1"?>
<!-- Generator: Adobe Illustrator 22.0.0, SVG Export Plug-In . SVG Version: 6.00 Build 0)  -->
<svg version="1.1" baseProfile="tiny" id="Layer_1" xmlns="http://www.w3.org/2000/svg" xmlns:xlink="http://www.w3.org/1999/xlink"
	 x="0px" y="0px" viewBox="0 0 99.074 104.948" xml:space="preserve">
<g>
	<g>
		<path fill="#87897C" d="M51.005,68.111c-12.715,0-25.43,0-38.145,0c-0.616,0-1.233,0-1.772-0.084
			c-1.31-0.167-2.158-1.255-2.235-2.678c-0.077-1.59,0.539-2.762,1.849-3.264c0.616-0.167,1.31-0.251,1.926-0.251
			c6.935,0,13.794,0,20.729,0c18.648,0,37.297,0,55.868,0c4.55,0,5.038,6.109,0.077,6.109
			C76.512,68.111,63.797,68.111,51.005,68.111z"/>
		<path fill="#87897C" d="M51.159,12.826c-12.792,0-25.661,0-38.453,0c-0.539,0-1.079,0-1.618-0.084
			c-1.233-0.167-2.081-1.255-2.235-2.678c-0.154-1.423,0.539-2.678,1.772-3.096c0.694-0.251,1.387-0.251,2.081-0.251
			c13.871,0,27.741,0,41.612,0c11.636,0,23.349,0,34.985,0c4.93,0,4.559,6.193-0.154,6.193
			C76.435,12.826,63.797,12.826,51.159,12.826z"/>
		<path fill="#87897C" d="M51.082,95.836c-12.792,0-25.584,0-38.299,0c-0.539,0-1.079,0-1.618,0
			c-1.387-0.167-2.312-1.423-2.312-3.013c0-1.674,0.925-2.929,2.389-3.096c0.385-0.084,0.771,0,1.156,0c25.738,0,51.553,0,77.291,0
			c4.811,0,3.791,6.109-0.539,6.109C76.435,95.836,63.797,95.836,51.082,95.836z"/>
		<path fill="#87897C" d="M51.005,40.636c-12.792,0-25.584,0-38.299,0c-0.694,0-1.464,0-2.081-0.251
			c-1.156-0.335-1.772-1.506-1.772-2.929c0-1.423,0.848-2.678,2.004-2.929c0.462-0.084,0.848-0.084,1.31-0.084
			c25.892,0,51.784,0,77.676,0c4.21,0,4.043,6.026-0.231,6.026C76.666,40.636,63.874,40.636,51.005,40.636z"/>
		<path fill="#87897C" d="M59.249,75.948c9.875,0,19.75,0,29.626,0c5.083,0,5.319,6.193,0.586,6.193c-20.085,0-40.254,0-60.339,0
			c-0.837,0-1.674-0.167-2.427-0.502c-1.004-0.418-1.59-1.841-1.423-2.845c0.167-1.339,0.921-2.343,2.092-2.594
			c0.67-0.167,1.339-0.167,1.925-0.167C39.248,75.948,49.207,75.948,59.249,75.948z"/>
		<path fill="#87897C" d="M59.249,26.605c-9.959,0-19.834,0-29.793,0c-0.586,0-1.172,0-1.757-0.084
			c-1.423-0.167-2.26-1.088-2.427-2.678c-0.167-1.255,0.586-2.594,1.757-3.096c0.67-0.251,1.506-0.418,2.26-0.418
			c5.858,0,11.633,0,17.491,0c14.06,0,28.119,0,42.095,0c2.132-0.271,3.657,0.831,4.223,2.879c0.268,0.97-0.587,2.101-1.353,2.685
			c-0.831,0.633-1.865,0.756-2.87,0.545C79,26.605,69.125,26.605,59.249,26.605z"/>
		<path fill="#87897C" d="M59.249,54.331c-9.875,0-19.75,0-29.626,0c-0.502,0-1.088,0-1.59,0c-1.59-0.167-2.762-1.423-2.762-3.013
			s1.172-2.929,2.845-3.096c0.418,0,0.837,0,1.255,0c19.918,0,39.919,0,59.837,0c1.543,0,4.101,0.977,4.101,2.859
			c0,1.393-0.828,2.096-1.538,2.657c0,0-1.274,0.591-2.814,0.593C79,54.346,69.125,54.331,59.249,54.331z"/>
	</g>
</g>
</svg>
