<?xml version="1.0" encoding="utf-8"?>
<!-- Generator: Adobe Illustrator 22.0.0, SVG Export Plug-In . SVG Version: 6.00 Build 0)  -->
<svg version="1.1" id="Layer_1" xmlns="http://www.w3.org/2000/svg" xmlns:xlink="http://www.w3.org/1999/xlink" x="0px" y="0px"
	 viewBox="0 0 575.3 177" style="enable-background:new 0 0 575.3 177;" xml:space="preserve">
<style type="text/css">
	.st0{fill:#86897C;}
	.st1{enable-background:new    ;}
	.st2{fill:#969988;}
</style>
<g>
	<g>
		<g>
			<path class="st0" d="M67.5,110.8c-12.7,0-25.4,0-38.1,0c-0.6,0-1.2,0-1.8-0.1c-1.3-0.2-2.2-1.3-2.2-2.7c-0.1-1.6,0.5-2.8,1.8-3.3
				c0.6-0.2,1.3-0.3,1.9-0.3c6.9,0,13.8,0,20.7,0c18.6,0,37.3,0,55.9,0c4.6,0,5,6.1,0.1,6.1C93,110.8,80.3,110.8,67.5,110.8z"/>
		</g>
		<g>
			<path class="st0" d="M67.6,55.5c-12.8,0-25.7,0-38.5,0c-0.5,0-1.1,0-1.6-0.1c-1.2-0.2-2.1-1.3-2.2-2.7s0.5-2.7,1.8-3.1
				c0.7-0.3,1.4-0.3,2.1-0.3c13.9,0,27.7,0,41.6,0c11.6,0,23.3,0,35,0c4.9,0,4.6,6.2-0.2,6.2C92.9,55.5,80.3,55.5,67.6,55.5z"/>
		</g>
		<g>
			<path class="st0" d="M67.5,138.5c-12.8,0-25.6,0-38.3,0c-0.5,0-1.1,0-1.6,0c-1.4-0.2-2.3-1.4-2.3-3c0-1.7,0.9-2.9,2.4-3.1
				c0.4-0.1,0.8,0,1.2,0c25.7,0,51.6,0,77.3,0c4.8,0,3.8,6.1-0.5,6.1C92.9,138.5,80.3,138.5,67.5,138.5z"/>
		</g>
		<g>
			<path class="st0" d="M67.5,83.3c-12.8,0-25.6,0-38.3,0c-0.7,0-1.5,0-2.1-0.3c-1.2-0.3-1.8-1.5-1.8-2.9c0-1.4,0.8-2.7,2-2.9
				c0.5-0.1,0.8-0.1,1.3-0.1c25.9,0,51.8,0,77.7,0c4.2,0,4,6-0.2,6C93.1,83.3,80.3,83.3,67.5,83.3z"/>
		</g>
		<g>
			<path class="st0" d="M75.7,118.6c9.9,0,19.8,0,29.6,0c5.1,0,5.3,6.2,0.6,6.2c-20.1,0-40.3,0-60.3,0c-0.8,0-1.7-0.2-2.4-0.5
				c-1-0.4-1.6-1.8-1.4-2.8c0.2-1.3,0.9-2.3,2.1-2.6c0.7-0.2,1.3-0.2,1.9-0.2C55.7,118.6,65.7,118.6,75.7,118.6z"/>
		</g>
		<g>
			<path class="st0" d="M75.7,69.3c-10,0-19.8,0-29.8,0c-0.6,0-1.2,0-1.8-0.1c-1.4-0.2-2.3-1.1-2.4-2.7c-0.2-1.3,0.6-2.6,1.8-3.1
				c0.7-0.3,1.5-0.4,2.3-0.4c5.9,0,11.6,0,17.5,0c14.1,0,28.1,0,42.1,0c2.1-0.3,3.7,0.8,4.2,2.9c0.3,1-0.6,2.1-1.4,2.7
				c-0.8,0.6-1.9,0.8-2.9,0.5C95.5,69.3,85.6,69.3,75.7,69.3z"/>
		</g>
		<g>
			<path class="st0" d="M75.7,97c-9.9,0-19.8,0-29.6,0c-0.5,0-1.1,0-1.6,0c-1.6-0.2-2.8-1.4-2.8-3s1.2-2.9,2.8-3.1
				c0.4,0,0.8,0,1.3,0c19.9,0,39.9,0,59.8,0c1.5,0,4.1,1,4.1,2.9c0,0.9-0.8,2.1-1.5,2.7c-0.8,0.6-1.8,0.8-2.8,0.6
				C95.5,97,85.6,97,75.7,97z"/>
		</g>
	</g>
</g>
<g class="st1">
	<path class="st2" d="M139.9,85.3c0-5.8-0.2-10.6-0.4-14.8h12.5l0.7,6.5h0.3c1.9-3,6.6-7.5,14.3-7.5c9.5,0,16.6,6.4,16.6,20v27.4
		h-14.4V91.2c0-6-2.1-10.1-7.3-10.1c-4,0-6.4,2.8-7.4,5.4c-0.4,0.9-0.5,2.3-0.5,3.6v26.8h-14.4V85.3z"/>
	<path class="st2" d="M206.3,98.3c0.4,6,6.4,8.8,13.1,8.8c4.9,0,8.9-0.7,12.8-2l1.9,9.8c-4.7,2-10.5,2.9-16.8,2.9
		c-15.8,0-24.8-9.1-24.8-23.6c0-11.8,7.3-24.8,23.5-24.8c15,0,20.7,11.7,20.7,23.2c0,2.5-0.3,4.7-0.5,5.7H206.3z M223.3,88.5
		c0-3.5-1.5-9.4-8.2-9.4c-6.1,0-8.5,5.6-8.9,9.4H223.3z"/>
	<path class="st2" d="M254.3,70.5l3.8,19.1c0.9,4.7,1.8,9.9,2.6,15.2h0.3c0.9-5.3,2.3-10.5,3.3-15.1l4.9-19.2h11.4l4.7,18.5
		c1.3,5.3,2.6,10.4,3.4,15.8h0.2c0.7-5.2,1.6-10.5,2.8-15.9l3.9-18.4h14.1l-14.2,46.4H282l-4.4-16.2c-1.2-4.6-2.1-8.7-3-14.5h-0.2
		c-0.9,5.8-1.8,10.2-2.9,14.4l-4.7,16.3h-13.6l-13.6-46.4H254.3z"/>
	<path class="st2" d="M314.4,104.4c2.7,1.6,8.2,3.4,12.4,3.4c4.4,0,6.2-1.4,6.2-3.8c0-2.5-1.4-3.6-6.7-5.4
		c-9.7-3.2-13.4-8.5-13.3-14c0-8.7,7.4-15.3,18.9-15.3c5.4,0,10.2,1.3,13,2.8l-2.5,10c-2.1-1.1-6.2-2.7-10.1-2.7
		c-3.5,0-5.5,1.4-5.5,3.7c0,2.3,1.8,3.4,7.5,5.4c8.8,3,12.4,7.6,12.5,14.3c0,8.7-6.7,15.1-20,15.1c-6.1,0-11.5-1.4-15-3.3
		L314.4,104.4z"/>
</g>
<g class="st1">
</g>
<g class="st1">
	<path class="st0" d="M374.9,86.2c0-5.8-0.2-10.6-0.4-14.8h12.5l0.7,6.5h0.3c1.9-3,6.6-7.5,14.3-7.5c9.5,0,16.6,6.4,16.6,20v27.4
		h-14.4V92.1c0-6-2.1-10.1-7.3-10.1c-4,0-6.4,2.8-7.4,5.4c-0.4,0.9-0.5,2.3-0.5,3.6v26.8h-14.4V86.2z"/>
	<path class="st0" d="M475.7,94.1c0,17-12.1,24.8-24.5,24.8c-13.6,0-24-8.9-24-23.9c0-15.1,9.9-24.7,24.9-24.7
		C466.2,70.2,475.7,80,475.7,94.1z M442,94.5c0,8,3.3,14,9.5,14c5.7,0,9.2-5.6,9.2-14.1c0-6.8-2.7-13.9-9.2-13.9
		C444.7,80.6,442,87.7,442,94.5z"/>
	<path class="st0" d="M493.2,71.4l3.8,19.1c0.9,4.7,1.8,9.9,2.6,15.2h0.3c0.9-5.3,2.3-10.5,3.3-15.1l4.9-19.2h11.4l4.7,18.5
		c1.3,5.3,2.6,10.4,3.4,15.8h0.2c0.7-5.2,1.6-10.5,2.8-15.9l3.9-18.4h14.1l-14.2,46.4h-13.5l-4.4-16.2c-1.2-4.6-2.1-8.7-3-14.5h-0.2
		c-0.9,5.8-1.8,10.2-2.9,14.4l-4.7,16.3h-13.6l-13.6-46.4H493.2z"/>
</g>
</svg>
