<?xml version="1.0" encoding="utf-8"?>
<!-- Generator: Adobe Illustrator 22.0.0, SVG Export Plug-In . SVG Version: 6.00 Build 0)  -->
<svg version="1.1" id="Layer_1" xmlns="http://www.w3.org/2000/svg" xmlns:xlink="http://www.w3.org/1999/xlink" x="0px" y="0px"
	 viewBox="0 0 711.1 177" style="enable-background:new 0 0 711.1 177;" xml:space="preserve">
<style type="text/css">
	.st0{fill:#86897C;}
	.st1{enable-background:new    ;}
	.st2{fill:#969988;}
	.st3{font-family:'MyriadPro-Bold';}
	.st4{font-size:94.9563px;}
</style>
<g>
	<g>
		<path class="st0" d="M125,110.8c-12.7,0-25.4,0-38.1,0c-0.6,0-1.2,0-1.8-0.1c-1.3-0.2-2.2-1.3-2.2-2.7c-0.1-1.6,0.5-2.8,1.8-3.3
			c0.6-0.2,1.3-0.3,1.9-0.3c6.9,0,13.8,0,20.7,0c18.6,0,37.3,0,55.9,0c4.6,0,5,6.1,0.1,6.1C150.5,110.8,137.8,110.8,125,110.8z"/>
		<path class="st0" d="M125.2,55.5c-12.8,0-25.7,0-38.5,0c-0.5,0-1.1,0-1.6-0.1c-1.2-0.2-2.1-1.3-2.2-2.7s0.5-2.7,1.8-3.1
			c0.7-0.3,1.4-0.3,2.1-0.3c13.9,0,27.7,0,41.6,0c11.6,0,23.3,0,35,0c4.9,0,4.6,6.2-0.2,6.2C150.4,55.5,137.8,55.5,125.2,55.5z"/>
		<path class="st0" d="M125.1,138.5c-12.8,0-25.6,0-38.3,0c-0.5,0-1.1,0-1.6,0c-1.4-0.2-2.3-1.4-2.3-3c0-1.7,0.9-2.9,2.4-3.1
			c0.4-0.1,0.8,0,1.2,0c25.7,0,51.6,0,77.3,0c4.8,0,3.8,6.1-0.5,6.1C150.4,138.5,137.8,138.5,125.1,138.5z"/>
		<path class="st0" d="M125,83.3c-12.8,0-25.6,0-38.3,0c-0.7,0-1.5,0-2.1-0.3c-1.2-0.3-1.8-1.5-1.8-2.9c0-1.4,0.8-2.7,2-2.9
			c0.5-0.1,0.8-0.1,1.3-0.1c25.9,0,51.8,0,77.7,0c4.2,0,4,6-0.2,6C150.7,83.3,137.9,83.3,125,83.3z"/>
		<path class="st0" d="M133.3,118.6c9.9,0,19.8,0,29.6,0c5.1,0,5.3,6.2,0.6,6.2c-20.1,0-40.3,0-60.3,0c-0.8,0-1.7-0.2-2.4-0.5
			c-1-0.4-1.6-1.8-1.4-2.8c0.2-1.3,0.9-2.3,2.1-2.6c0.7-0.2,1.3-0.2,1.9-0.2C113.3,118.6,123.2,118.6,133.3,118.6z"/>
		<path class="st0" d="M133.3,69.3c-10,0-19.8,0-29.8,0c-0.6,0-1.2,0-1.8-0.1c-1.4-0.2-2.3-1.1-2.4-2.7c-0.2-1.3,0.6-2.6,1.8-3.1
			c0.7-0.3,1.5-0.4,2.3-0.4c5.9,0,11.6,0,17.5,0c14.1,0,28.1,0,42.1,0c2.1-0.3,3.7,0.8,4.2,2.9c0.3,1-0.6,2.1-1.4,2.7
			c-0.8,0.6-1.9,0.8-2.9,0.5C153,69.3,143.1,69.3,133.3,69.3z"/>
		<path class="st0" d="M133.3,97c-9.9,0-19.8,0-29.6,0c-0.5,0-1.1,0-1.6,0c-1.6-0.2-2.8-1.4-2.8-3s1.2-2.9,2.8-3.1
			c0.4,0,0.8,0,1.3,0c19.9,0,39.9,0,59.8,0c1.5,0,4.1,1,4.1,2.9c0,0.9-0.8,2.1-1.5,2.7c-0.8,0.6-1.8,0.8-2.8,0.6
			C153,97,143.1,97,133.3,97z"/>
	</g>
</g>
<text transform="matrix(1 0 0 1 191.6634 116.9408)" class="st1"><tspan x="0" y="0" class="st2 st3 st4">new</tspan><tspan x="176.7" y="0" class="st2 st3 st4">s</tspan></text>
<text transform="matrix(1 0 0 1 633.0498 210.0418)" class="st0 st3 st4"> </text>
<text transform="matrix(1 0 0 1 426.6642 117.8069)" class="st1"><tspan x="0" y="0" class="st0 st3 st4">n</tspan><tspan x="54.9" y="0" class="st0 st3 st4">ow</tspan></text>
</svg>
