<?xml version="1.0" encoding="utf-8"?>
<!-- Generator: Adobe Illustrator 22.0.0, SVG Export Plug-In . SVG Version: 6.00 Build 0)  -->
<svg version="1.1" id="Layer_1" xmlns="http://www.w3.org/2000/svg" xmlns:xlink="http://www.w3.org/1999/xlink" x="0px" y="0px"
	 viewBox="0 0 711.1 177" style="enable-background:new 0 0 711.1 177;" xml:space="preserve">
<style type="text/css">
	.st0{fill:url(#SVGID_1_);}
	.st1{fill:url(#SVGID_2_);}
	.st2{fill:url(#SVGID_3_);}
	.st3{fill:url(#SVGID_4_);}
	.st4{fill:url(#SVGID_5_);}
	.st5{fill:url(#SVGID_6_);}
	.st6{fill:url(#SVGID_7_);}
	.st7{fill:#575B48;}
	.st8{font-family:'MyriadPro-Bold';}
	.st9{font-size:94.9563px;}
	.st10{fill:#313329;}
</style>
<g>
	<g>
		<linearGradient id="SVGID_1_" gradientUnits="userSpaceOnUse" x1="57.6137" y1="113.9771" x2="167.2571" y2="113.9771">
			<stop  offset="0" style="stop-color:#000000;stop-opacity:0.8"/>
			<stop  offset="1" style="stop-color:#575B48"/>
		</linearGradient>
		<path class="st0" d="M112.4,117.7c-16.5,0-33,0-49.5,0c-0.8,0-1.6,0-2.3-0.1c-1.7-0.2-2.8-1.5-2.9-3.2c-0.1-1.9,0.7-3.3,2.4-3.9
			c0.8-0.2,1.7-0.3,2.5-0.3c9,0,17.9,0,26.9,0c24.2,0,48.4,0,72.5,0c0.7,0,1.4-0.1,2.1,0c2.5,0.4,3.8,2.9,2.8,5.3
			c-0.5,1.2-1.4,1.8-2.5,1.9c-0.8,0.1-1.6,0.1-2.3,0.1C145.5,117.7,129,117.7,112.4,117.7z"/>
		<linearGradient id="SVGID_2_" gradientUnits="userSpaceOnUse" x1="57.6171" y1="43.8653" x2="167.3144" y2="43.8653">
			<stop  offset="0" style="stop-color:#000000;stop-opacity:0.8"/>
			<stop  offset="1" style="stop-color:#575B48"/>
		</linearGradient>
		<path class="st1" d="M112.6,47.5c-16.6,0-33.3,0-49.9,0c-0.7,0-1.4,0-2.1-0.1c-1.6-0.2-2.7-1.5-2.9-3.2c-0.2-1.7,0.7-3.2,2.3-3.7
			c0.9-0.3,1.8-0.3,2.7-0.3c18,0,36,0,54,0c15.1,0,30.3,0,45.4,0c0.7,0,1.4-0.1,2.1,0.1c1.8,0.3,3.2,2,3.1,3.8
			c-0.1,2-1.3,3.3-3.3,3.5c-0.7,0.1-1.4,0-2.1,0C145.4,47.5,129,47.5,112.6,47.5z"/>
		<linearGradient id="SVGID_3_" gradientUnits="userSpaceOnUse" x1="57.6158" y1="149.2292" x2="167.3128" y2="149.2292">
			<stop  offset="0" style="stop-color:#000000;stop-opacity:0.8"/>
			<stop  offset="1" style="stop-color:#575B48"/>
		</linearGradient>
		<path class="st2" d="M112.5,152.9c-16.6,0-33.2,0-49.7,0c-0.7,0-1.4,0-2.1,0c-1.8-0.2-3-1.7-3-3.6c0-2,1.2-3.5,3.1-3.7
			c0.5-0.1,1,0,1.5,0c33.4,0,66.9,0,100.3,0c0.5,0,1,0,1.5,0c1.9,0.2,3.3,1.9,3.2,3.7c0,1.8-1.4,3.4-3.3,3.6c-0.7,0.1-1.4,0-2.1,0
			C145.4,152.9,129,152.9,112.5,152.9z"/>
		<linearGradient id="SVGID_4_" gradientUnits="userSpaceOnUse" x1="57.6168" y1="79.116" x2="167.3132" y2="79.116">
			<stop  offset="0" style="stop-color:#000000;stop-opacity:0.8"/>
			<stop  offset="1" style="stop-color:#575B48"/>
		</linearGradient>
		<path class="st3" d="M112.4,82.8c-16.6,0-33.2,0-49.7,0c-0.9,0-1.9,0-2.7-0.3c-1.5-0.4-2.3-1.8-2.3-3.5c0-1.7,1.1-3.2,2.6-3.5
			c0.6-0.1,1.1-0.1,1.7-0.1c33.6,0,67.2,0,100.8,0c0.8,0,1.6,0.1,2.3,0.3c1.3,0.5,2.3,1.9,2.3,3.3c0,1.4-0.9,2.9-2.2,3.3
			c-0.9,0.3-1.8,0.3-2.7,0.3C145.7,82.8,129.1,82.8,112.4,82.8z"/>
		<linearGradient id="SVGID_5_" gradientUnits="userSpaceOnUse" x1="85.9273" y1="131.7924" x2="167.3157" y2="131.7924">
			<stop  offset="0" style="stop-color:#000000;stop-opacity:0.8"/>
			<stop  offset="1" style="stop-color:#575B48"/>
		</linearGradient>
		<path class="st4" d="M126.6,128.1c11.8,0,23.6,0,35.4,0c0.6,0,1.3,0,1.9,0c2,0.2,3.3,1.4,3.4,3.5c0.1,1.8-1.3,3.5-3.1,3.8
			c-0.5,0.1-1,0.1-1.5,0.1c-24,0-48.1,0-72.1,0c-1,0-2-0.2-2.9-0.6c-1.2-0.5-1.9-2.2-1.7-3.4c0.2-1.6,1.1-2.8,2.5-3.1
			c0.8-0.2,1.6-0.2,2.3-0.2C102.7,128.1,114.6,128.1,126.6,128.1z"/>
		<linearGradient id="SVGID_6_" gradientUnits="userSpaceOnUse" x1="85.9283" y1="61.3009" x2="167.3058" y2="61.3009">
			<stop  offset="0" style="stop-color:#000000;stop-opacity:0.8"/>
			<stop  offset="1" style="stop-color:#575B48"/>
		</linearGradient>
		<path class="st5" d="M126.6,65c-11.9,0-23.7,0-35.6,0c-0.7,0-1.4,0-2.1-0.1c-1.7-0.2-2.7-1.3-2.9-3.2c-0.2-1.5,0.7-3.1,2.1-3.7
			c0.8-0.3,1.8-0.5,2.7-0.5c7,0,13.9,0,20.9,0c16.8,0,33.6,0,50.3,0c1,0,2,0.1,2.9,0.4c1.6,0.5,2.5,2.2,2.3,3.7
			c-0.2,1.9-1.3,3.1-3.1,3.2c-0.7,0.1-1.4,0-2.1,0C150.2,65,138.4,65,126.6,65z"/>
		<linearGradient id="SVGID_7_" gradientUnits="userSpaceOnUse" x1="85.9184" y1="96.5474" x2="167.3138" y2="96.5474">
			<stop  offset="0" style="stop-color:#000000;stop-opacity:0.8"/>
			<stop  offset="1" style="stop-color:#575B48"/>
		</linearGradient>
		<path class="st6" d="M126.6,100.2c-11.8,0-23.6,0-35.4,0c-0.6,0-1.3,0-1.9,0c-1.9-0.2-3.3-1.7-3.3-3.6c0-1.9,1.4-3.5,3.4-3.7
			c0.5,0,1,0,1.5,0c23.8,0,47.7,0,71.5,0c0.5,0,1,0,1.5,0c2,0.2,3.5,1.8,3.4,3.7c0,1.9-1.4,3.4-3.3,3.6c-0.6,0.1-1.3,0-1.9,0
			C150.2,100.2,138.4,100.2,126.6,100.2z"/>
	</g>
</g>
<text transform="matrix(1 0 0 1 195.128 119.1061)"><tspan x="0" y="0" class="st7 st8 st9">news</tspan><tspan x="217.5" y="0" class="st8 st9"> </tspan><tspan x="236.3" y="0" class="st10 st8 st9">now</tspan></text>
</svg>
